<svg width="128" height="30" viewBox="0 0 128 30" fill="none" xmlns="http://www.w3.org/2000/svg">
<path d="M0.789474 0.789474H67.1053V29.2105H0.789474V0.789474Z" stroke="#6C90BA" stroke-width="1.57895"/>
<path d="M10.6764 21.7368V8.26638H14.8211C16.0053 8.26638 17.0631 8.53467 17.9944 9.07127C18.9319 9.6017 19.6628 10.3603 20.1871 11.3472C20.7113 12.3278 20.9735 13.4442 20.9735 14.6963V15.3161C20.9735 16.5682 20.7144 17.6815 20.1963 18.656C19.6844 19.6305 18.9597 20.386 18.0222 20.9226C17.0847 21.4592 16.0269 21.7306 14.8489 21.7368H10.6764ZM13.4519 10.5145V19.5071H14.7934C15.8789 19.5071 16.7085 19.1525 17.2821 18.4432C17.8557 17.7339 18.1486 16.7193 18.161 15.3994V14.687C18.161 13.3178 17.8773 12.2816 17.3098 11.5785C16.7424 10.8692 15.9128 10.5145 14.8211 10.5145H13.4519Z" fill="#2E353D"/>
<path d="M27.4311 21.9218C25.9632 21.9218 24.7666 21.4716 23.8415 20.5711C22.9225 19.6706 22.463 18.4709 22.463 16.9722V16.7131C22.463 15.7078 22.6573 14.8104 23.0458 14.0209C23.4344 13.2253 23.9833 12.6146 24.6926 12.1891C25.4081 11.7573 26.2222 11.5415 27.1351 11.5415C28.5043 11.5415 29.5806 11.9732 30.3639 12.8367C31.1534 13.7002 31.5481 14.9245 31.5481 16.5096V17.6013H25.1737C25.2601 18.2551 25.5191 18.7793 25.9509 19.1741C26.3888 19.5688 26.9408 19.7662 27.6069 19.7662C28.6369 19.7662 29.4418 19.393 30.0216 18.6467L31.3353 20.1177C30.9344 20.6852 30.3916 21.1292 29.707 21.45C29.0224 21.7645 28.2638 21.9218 27.4311 21.9218ZM27.1258 13.7063C26.5954 13.7063 26.1636 13.8852 25.8306 14.2429C25.5037 14.6007 25.294 15.1126 25.2015 15.7787H28.9206V15.5659C28.9083 14.9738 28.7479 14.5174 28.4396 14.1967C28.1312 13.8698 27.6933 13.7063 27.1258 13.7063Z" fill="#2E353D"/>
<path d="M37.2379 19.7662C37.7313 19.7662 38.1322 19.6305 38.4406 19.3591C38.749 19.0877 38.9093 18.7269 38.9217 18.2767H41.4289C41.4227 18.9551 41.2377 19.5781 40.8738 20.1455C40.5099 20.7068 40.0103 21.1447 39.375 21.4592C38.7459 21.7676 38.0489 21.9218 37.2841 21.9218C35.8532 21.9218 34.7245 21.4685 33.898 20.5618C33.0715 19.649 32.6583 18.3908 32.6583 16.7871V16.6114C32.6583 15.0694 33.0685 13.839 33.8888 12.92C34.7091 12.001 35.8347 11.5415 37.2656 11.5415C38.5177 11.5415 39.5199 11.8992 40.2724 12.6146C41.031 13.3239 41.4165 14.2707 41.4289 15.4549H38.9217C38.9093 14.9368 38.749 14.5174 38.4406 14.1967C38.1322 13.8698 37.7251 13.7063 37.2194 13.7063C36.5964 13.7063 36.1246 13.9346 35.8039 14.391C35.4893 14.8412 35.332 15.5752 35.332 16.5929V16.8704C35.332 17.9004 35.4893 18.6406 35.8039 19.0908C36.1184 19.541 36.5964 19.7662 37.2379 19.7662Z" fill="#2E353D"/>
<path d="M42.5391 16.6391C42.5391 15.6461 42.7303 14.761 43.1127 13.9839C43.4951 13.2068 44.044 12.6054 44.7594 12.1798C45.4811 11.7542 46.3168 11.5415 47.2666 11.5415C48.6174 11.5415 49.7183 11.9547 50.5695 12.7812C51.4268 13.6077 51.9048 14.7302 52.0035 16.1488L52.022 16.8334C52.022 18.3692 51.5933 19.6027 50.736 20.5341C49.8787 21.4592 48.7284 21.9218 47.2851 21.9218C45.8419 21.9218 44.6885 21.4592 43.825 20.5341C42.9677 19.6089 42.5391 18.3507 42.5391 16.7594V16.6391ZM45.2128 16.8334C45.2128 17.7832 45.3916 18.511 45.7494 19.0168C46.1071 19.5164 46.619 19.7662 47.2851 19.7662C47.9328 19.7662 48.4385 19.5195 48.8024 19.026C49.1663 18.5265 49.3483 17.7308 49.3483 16.6391C49.3483 15.7078 49.1663 14.9862 48.8024 14.4742C48.4385 13.9623 47.9266 13.7063 47.2666 13.7063C46.6129 13.7063 46.1071 13.9623 45.7494 14.4742C45.3916 14.98 45.2128 15.7664 45.2128 16.8334Z" fill="#2E353D"/>
<path d="M59.2938 14.2337C58.9299 14.1843 58.6092 14.1597 58.3316 14.1597C57.3201 14.1597 56.6571 14.502 56.3425 15.1866V21.7368H53.6688V11.7265H56.1945L56.2685 12.92C56.8051 12.001 57.5483 11.5415 58.4981 11.5415C58.7942 11.5415 59.0717 11.5815 59.3308 11.6617L59.2938 14.2337Z" fill="#2E353D"/>
<path d="M80.8193 18.2026C80.8193 17.6784 80.6342 17.2775 80.2642 16.9999C79.8941 16.7162 79.228 16.4202 78.2658 16.1118C77.3037 15.7972 76.5419 15.4888 75.9807 15.1866C74.4511 14.3601 73.6863 13.2468 73.6863 11.8468C73.6863 11.119 73.8898 10.4714 74.2969 9.90392C74.7101 9.33032 75.2991 8.88315 76.0639 8.56243C76.8349 8.24171 77.6984 8.08134 78.6544 8.08134C79.6166 8.08134 80.4739 8.25713 81.2264 8.60869C81.9788 8.95408 82.5617 9.44442 82.9749 10.0797C83.3943 10.715 83.604 11.4366 83.604 12.2446H80.8285C80.8285 11.6278 80.6343 11.1498 80.2457 10.8106C79.8571 10.4652 79.3113 10.2925 78.6081 10.2925C77.9297 10.2925 77.4023 10.4374 77.0261 10.7273C76.6499 11.011 76.4618 11.3873 76.4618 11.856C76.4618 12.2939 76.6807 12.6609 77.1186 12.957C77.5627 13.253 78.2134 13.5306 79.0707 13.7896C80.6497 14.2645 81.8 14.8535 82.5216 15.5567C83.2432 16.2598 83.604 17.1356 83.604 18.1841C83.604 19.3498 83.163 20.2658 82.281 20.9319C81.3991 21.5918 80.2118 21.9218 78.7192 21.9218C77.683 21.9218 76.7393 21.7337 75.8882 21.3575C75.037 20.9751 74.3863 20.4539 73.9361 19.7939C73.492 19.134 73.2699 18.3692 73.2699 17.4995H76.0547C76.0547 18.9859 76.9428 19.7292 78.7192 19.7292C79.3791 19.7292 79.8941 19.5966 80.2642 19.3313C80.6342 19.06 80.8193 18.6837 80.8193 18.2026Z" fill="#2E353D"/>
<path d="M88.5166 9.26555V11.7265H90.2282V13.6878H88.5166V18.6837C88.5166 19.0538 88.5876 19.319 88.7294 19.4794C88.8713 19.6397 89.1427 19.7199 89.5436 19.7199C89.8396 19.7199 90.1018 19.6983 90.33 19.6552V21.6813C89.8057 21.8416 89.266 21.9218 88.7109 21.9218C86.8359 21.9218 85.8799 20.9751 85.8429 19.0815V13.6878H84.3812V11.7265H85.8429V9.26555H88.5166Z" fill="#2E353D"/>
<path d="M97.7128 20.7191C97.0528 21.5209 96.14 21.9218 94.9743 21.9218C93.9011 21.9218 93.0808 21.6134 92.5134 20.9966C91.9521 20.3799 91.6653 19.4763 91.653 18.2859V11.7265H94.3267V18.1934C94.3267 19.2357 94.8016 19.7569 95.7514 19.7569C96.6581 19.7569 97.281 19.4424 97.6203 18.8133V11.7265H100.303V21.7368H97.7868L97.7128 20.7191Z" fill="#2E353D"/>
<path d="M101.904 16.6576C101.904 15.0972 102.252 13.8544 102.949 12.9292C103.652 12.004 104.611 11.5415 105.826 11.5415C106.801 11.5415 107.606 11.9054 108.241 12.6332V7.52625H110.924V21.7368H108.509L108.38 20.6728C107.714 21.5055 106.856 21.9218 105.808 21.9218C104.63 21.9218 103.683 21.4592 102.968 20.5341C102.258 19.6027 101.904 18.3106 101.904 16.6576ZM104.578 16.8519C104.578 17.7894 104.741 18.5079 105.068 19.0075C105.395 19.5071 105.87 19.7569 106.493 19.7569C107.319 19.7569 107.902 19.4084 108.241 18.7115V14.761C107.908 14.0641 107.331 13.7156 106.511 13.7156C105.222 13.7156 104.578 14.761 104.578 16.8519Z" fill="#2E353D"/>
<path d="M115.818 21.7368H113.135V11.7265H115.818V21.7368ZM112.978 9.13603C112.978 8.73513 113.111 8.40515 113.376 8.14611C113.647 7.88706 114.014 7.75754 114.477 7.75754C114.933 7.75754 115.297 7.88706 115.568 8.14611C115.84 8.40515 115.976 8.73513 115.976 9.13603C115.976 9.5431 115.837 9.87616 115.559 10.1352C115.288 10.3943 114.927 10.5238 114.477 10.5238C114.027 10.5238 113.663 10.3943 113.385 10.1352C113.114 9.87616 112.978 9.5431 112.978 9.13603Z" fill="#2E353D"/>
<path d="M117.613 16.6391C117.613 15.6461 117.804 14.761 118.187 13.9839C118.569 13.2068 119.118 12.6054 119.833 12.1798C120.555 11.7542 121.391 11.5415 122.341 11.5415C123.691 11.5415 124.792 11.9547 125.644 12.7812C126.501 13.6077 126.979 14.7302 127.078 16.1488L127.096 16.8334C127.096 18.3692 126.667 19.6027 125.81 20.5341C124.953 21.4592 123.802 21.9218 122.359 21.9218C120.916 21.9218 119.763 21.4592 118.899 20.5341C118.042 19.6089 117.613 18.3507 117.613 16.7594V16.6391ZM120.287 16.8334C120.287 17.7832 120.466 18.511 120.823 19.0168C121.181 19.5164 121.693 19.7662 122.359 19.7662C123.007 19.7662 123.513 19.5195 123.876 19.026C124.24 18.5265 124.422 17.7308 124.422 16.6391C124.422 15.7078 124.24 14.9862 123.876 14.4742C123.513 13.9623 123.001 13.7063 122.341 13.7063C121.687 13.7063 121.181 13.9623 120.823 14.4742C120.466 14.98 120.287 15.7664 120.287 16.8334Z" fill="#2E353D"/>
</svg>
